name analog
datacolumns 19
datarows 31
range 0.233 0.248
endheader
time	ground_force_vx	ground_force_vy	ground_force_vz	ground_force_px	ground_force_py	ground_force_pz	l_ground_force_vx	l_ground_force_vy	l_ground_force_vz	l_ground_force_px	l_ground_force_py	l_ground_force_pz	ground_torque_x	ground_torque_y	ground_torque_z	l_ground_torque_x	l_ground_torque_y	l_ground_torque_z
0.233	-0.0	-0.0	-0.0	-1.7649908065795898	29.538272857666016	-328.0235595703125	-0.8693051338195801	-28.174617767333984	-296.70880126953125	-0.0	-0.0	-0.0	-0.0	-0.0	-0.0	93400.9921875	-2753.297607421875	-2843.6162109375
0.2335	-0.0	-0.0	-0.0	-1.927854299545288	29.9296875	-324.925537109375	-0.9572782516479492	-28.510107040405277	-297.4094543457031	-0.0	-0.0	-0.0	-0.0	-0.0	-0.0	93564.65625	-3060.51953125	-2725.0595703125
0.234	-0.0	-0.0	-0.0	-2.514298915863037	29.30392265319824	-325.9059143066406	-0.3369113206863403	-28.36911392211914	-297.3360290527344	-0.0	-0.0	-0.0	-0.0	-0.0	-0.0	93636.0	-2898.131103515625	-2582.220458984375
0.23450000000000001	-0.0	-0.0	-0.0	-2.818187713623047	29.127384185791016	-323.4490661621094	-0.1774215698242187	-28.262939453125	-299.9869384765625	-0.0	-0.0	-0.0	-0.0	-0.0	-0.0	93632.8359375	-3133.08642578125	-2428.153564453125
0.23500000000000001	-0.0	-0.0	-0.0	-3.1725857257843018	28.82571601867676	-321.5481262207031	0.230043426156044	-28.246479034423828	-300.0513916015625	-0.0	-0.0	-0.0	-0.0	-0.0	-0.0	94133.3046875	-3528.586181640625	-2279.57958984375
0.23550000000000001	-0.0	-0.0	-0.0	-3.3007888793945312	28.3618221282959	-320.6460876464844	0.124911680817604	-28.7027645111084	-301.3890991210937	-0.0	-0.0	-0.0	-0.0	-0.0	-0.0	94462.6328125	-3639.5625	-2196.287841796875
0.23600000000000002	-0.0	-0.0	-0.0	-3.479209899902344	28.358888626098636	-322.5993347167969	0.211613655090332	-28.70669174194336	-302.01617431640625	-0.0	-0.0	-0.0	-0.0	-0.0	-0.0	94661.25	-3636.021484375	-2131.518310546875
0.23650000000000002	-0.0	-0.0	-0.0	-3.709871768951416	28.37719345092773	-320.541015625	0.125137910246849	-29.107542037963867	-302.2312316894531	-0.0	-0.0	-0.0	-0.0	-0.0	-0.0	95316.5703125	-3791.51123046875	-2202.443115234375
0.23700000000000002	-0.0	-0.0	-0.0	-4.512685298919678	28.48471069335937	-322.45330810546875	-0.2296245098114013	-28.826669692993164	-302.92999267578125	-0.0	-0.0	-0.0	-0.0	-0.0	-0.0	95474.1953125	-3494.551025390625	-2327.384521484375
0.23750000000000002	-0.0	-0.0	-0.0	-4.423328876495361	28.49936866760254	-319.70147705078125	-0.850455105304718	-29.003097534179688	-303.41278076171875	-0.0	-0.0	-0.0	-0.0	-0.0	-0.0	95286.1875	-3552.602783203125	-2551.97412109375
0.23800000000000002	-0.0	-0.0	-0.0	-4.93982458114624	28.29161262512207	-317.39324951171875	-0.9238727688789368	-28.88437843322754	-303.3404235839844	-0.0	-0.0	-0.0	-0.0	-0.0	-0.0	95163.5703125	-3348.027099609375	-2765.678955078125
0.23850000000000002	-0.0	-0.0	-0.0	-5.0288166999816895	28.380889892578125	-315.8736267089844	-1.8593627214431765	-29.105859756469727	-302.4965515136719	-0.0	-0.0	-0.0	-0.0	-0.0	-0.0	94738.171875	-3106.771728515625	-2867.61376953125
0.23900000000000002	-0.0	-0.0	-0.0	-4.840765953063965	28.338842391967773	-315.4456481933594	-2.003357410430908	-29.179235458374023	-302.4233093261719	-0.0	-0.0	-0.0	-0.0	-0.0	-0.0	94885.2265625	-2872.2724609375	-2870.212646484375
0.23950000000000002	-0.0	-0.0	-0.0	-5.639086723327637	28.13249969482422	-313.21551513671875	-2.4613049030303955	-29.05380630493164	-300.4164123535156	-0.0	-0.0	-0.0	-0.0	-0.0	-0.0	94469.890625	-2745.228271484375	-3022.45556640625
0.24	-0.0	-0.0	-0.0	-5.531051635742188	27.884206771850582	-311.4508056640625	-2.4839019775390625	-28.98805427551269	-300.32635498046875	-0.0	-0.0	-0.0	-0.0	-0.0	-0.0	94567.328125	-2795.160888671875	-3223.826904296875
0.2405	-0.0	-0.0	-0.0	-6.098710536956787	27.72503089904785	-311.354736328125	-2.8574094772338867	-29.49944305419922	-301.2444152832031	-0.0	-0.0	-0.0	-0.0	-0.0	-0.0	94398.0546875	-2423.638671875	-3225.7236328125
0.241	-0.0	-0.0	-0.0	-5.817661285400391	27.821971893310547	-308.8295288085937	-2.894857406616211	-29.49944305419922	-299.57208251953125	-0.0	-0.0	-0.0	-0.0	-0.0	-0.0	94111.9765625	-2193.6015625	-3266.341552734375
0.2415	-0.0	-0.0	-0.0	-6.295844078063965	26.796222686767575	-308.8816223144531	-3.1236538887023926	-29.51298713684082	-299.2025756835937	-0.0	-0.0	-0.0	-0.0	-0.0	-0.0	93834.5859375	-2340.81884765625	-3344.647705078125
0.242	-0.0	-0.0	-0.0	-6.493259429931641	26.809160232543945	-306.9639587402344	-3.7258529663085938	-29.02033424377441	-299.4979553222656	-0.0	-0.0	-0.0	-0.0	-0.0	-0.0	93609.5703125	-2099.03466796875	-3298.255859375
0.2425	-0.0	-0.0	-0.0	-6.970907211303711	26.618350982666016	-307.19061279296875	-3.618236541748047	-29.392297744750977	-298.1239929199219	-0.0	-0.0	-0.0	-0.0	-0.0	-0.0	93695.296875	-2098.390869140625	-3487.053466796875
0.243	-0.0	-0.0	-0.0	-7.27138614654541	26.770641326904297	-304.9465026855469	-3.8335092067718506	-28.792869567871094	-297.2026062011719	-0.0	-0.0	-0.0	-0.0	-0.0	-0.0	93661.5625	-2064.649658203125	-3527.39013671875
0.2435	-0.0	-0.0	-0.0	-7.908358097076416	26.312728881835938	-305.1190795898437	-3.801861047744751	-28.68562889099121	-298.2502746582031	-0.0	-0.0	-0.0	-0.0	-0.0	-0.0	93382.9296875	-1933.6795654296875	-3529.4091796875
0.244	-0.0	-0.0	-0.0	-8.626526832580566	26.715524673461918	-305.1474609375	-3.972910881042481	-28.900182723999023	-298.6748046875	-0.0	-0.0	-0.0	-0.0	-0.0	-0.0	93866.7734375	-1984.6851806640625	-3586.75830078125
0.2445	-0.0	-0.0	-0.0	-9.347711563110352	26.084199905395508	-302.7213134765625	-4.505134582519531	-28.666484832763672	-299.4968566894531	-0.0	-0.0	-0.0	-0.0	-0.0	-0.0	94070.7890625	-1951.3121337890625	-3570.169921875
0.245	-0.0	-0.0	-0.0	-10.162047386169434	26.06490707397461	-302.0912475585937	-3.807495832443237	-28.716583251953125	-299.17535400390625	-0.0	-0.0	-0.0	-0.0	-0.0	-0.0	94064.1484375	-1871.7880859375	-3569.686767578125
0.2455	-0.0	-0.0	-0.0	-10.964577674865724	26.02607727050781	-299.9598999023437	-3.467150926589966	-28.124584197998047	-299.49639892578125	-0.0	-0.0	-0.0	-0.0	-0.0	-0.0	94186.6640625	-1936.4671630859373	-3552.48974609375
0.246	-0.0	-0.0	-0.0	-11.53008270263672	25.936946868896484	-300.3578186035156	-3.4867167472839355	-28.646947860717773	-301.4393005371094	-0.0	-0.0	-0.0	-0.0	-0.0	-0.0	94443.46875	-1932.219970703125	-3486.897216796875
0.2465	-0.0	-0.0	-0.0	-11.84536361694336	25.83715438842773	-298.31707763671875	-3.1435914039611816	-28.527904510498047	-299.7244567871094	-0.0	-0.0	-0.0	-0.0	-0.0	-0.0	94059.8125	-1822.77197265625	-3331.85400390625
0.247	-0.0	-0.0	-0.0	-11.834813117980955	25.80715751647949	-298.83184814453125	-3.1353964805603027	-28.174617767333984	-300.0413513183594	-0.0	-0.0	-0.0	-0.0	-0.0	-0.0	94209.78125	-1667.813720703125	-3295.6083984375
0.2475	-0.0	-0.0	-0.0	-11.983388900756836	26.234325408935547	-297.1805725097656	-3.135227680206299	-28.637924194335938	-298.0560607910156	-0.0	-0.0	-0.0	-0.0	-0.0	-0.0	93559.375	-1693.8221435546875	-3302.212158203125
0.248	-0.0	-0.0	-0.0	-12.013622283935549	26.01627349853516	-294.9447937011719	-3.0658254623413086	-28.460702896118164	-296.3111267089844	-0.0	-0.0	-0.0	-0.0	-0.0	-0.0	93123.171875	-1801.0184326171875	-3245.772216796875
